<svg xmlns="http://www.w3.org/2000/svg" viewBox="0 0 14 14" shape-rendering="crispEdges">
  <rect x="3" y="1" width="8" height="1" fill="#2a1e38"/>
  <rect x="2" y="2" width="10" height="3" fill="#2a1e38"/>
  <rect x="1" y="3" width="2" height="11" fill="#2a1e38"/>
  <rect x="11" y="3" width="2" height="11" fill="#2a1e38"/>
  <rect x="1" y="4" width="1" height="5" fill="#4a3358"/>
  <rect x="12" y="4" width="1" height="5" fill="#4a3358"/>
  <rect x="3" y="4" width="8" height="6" fill="#f0c090"/>
  <rect x="4" y="10" width="6" height="1" fill="#f0c090"/>
  <rect x="3" y="4" width="3" height="1" fill="#2a1e38"/>
  <rect x="8" y="4" width="3" height="1" fill="#2a1e38"/>
  <rect x="3" y="5" width="1" height="1" fill="#2a1e38"/>
  <rect x="10" y="5" width="1" height="1" fill="#2a1e38"/>
  <rect x="4" y="6" width="1" height="2" fill="#2a1e38"/>
  <rect x="9" y="6" width="1" height="2" fill="#2a1e38"/>
  <rect x="3" y="7" width="1" height="1" fill="#d8688a"/>
  <rect x="10" y="7" width="1" height="1" fill="#d8688a"/>
  <rect x="6" y="8" width="2" height="1" fill="#a83858"/>
  <rect x="0" y="11" width="1" height="3" fill="#a855f7"/>
  <rect x="13" y="11" width="1" height="3" fill="#a855f7"/>
  <rect x="3" y="11" width="8" height="1" fill="#3a2850"/>
  <rect x="3" y="12" width="8" height="2" fill="#a855f7"/>
  <rect x="4" y="12" width="6" height="1" fill="#c68cff"/>
</svg>
