<svg xmlns="http://www.w3.org/2000/svg" viewBox="0 0 1200 630" shape-rendering="crispEdges">
  <defs>
    <radialGradient id="glow" cx="50%" cy="42%" r="50%">
      <stop offset="0%" stop-color="#1a0f2a"/>
      <stop offset="100%" stop-color="#0a0710"/>
    </radialGradient>
  </defs>

  <!-- Background -->
  <rect width="1200" height="630" fill="url(#glow)"/>

  <!-- Starfield dots -->
  <circle cx="180" cy="120" r="1.5" fill="#c68cff" opacity="0.7"/>
  <circle cx="980" cy="90" r="1.5" fill="#e8e0f0" opacity="0.6"/>
  <circle cx="540" cy="550" r="1.5" fill="#a855f7" opacity="0.5"/>
  <circle cx="850" cy="500" r="1.5" fill="#f0c048" opacity="0.7"/>
  <circle cx="300" cy="430" r="1.5" fill="#e8e0f0" opacity="0.4"/>
  <circle cx="1050" cy="350" r="1.5" fill="#c68cff" opacity="0.6"/>
  <circle cx="150" cy="520" r="1.5" fill="#f0c048" opacity="0.5"/>
  <circle cx="700" cy="80" r="1.5" fill="#7ad870" opacity="0.4"/>

  <!-- Pixel avatar (scaled 14x) -->
  <g transform="translate(503, 75) scale(14)">
    <rect x="3" y="1" width="8" height="1" fill="#2a1e38"/>
    <rect x="2" y="2" width="10" height="3" fill="#2a1e38"/>
    <rect x="1" y="3" width="2" height="11" fill="#2a1e38"/>
    <rect x="11" y="3" width="2" height="11" fill="#2a1e38"/>
    <rect x="1" y="4" width="1" height="5" fill="#4a3358"/>
    <rect x="12" y="4" width="1" height="5" fill="#4a3358"/>
    <rect x="3" y="4" width="8" height="6" fill="#f0c090"/>
    <rect x="4" y="10" width="6" height="1" fill="#f0c090"/>
    <rect x="3" y="4" width="3" height="1" fill="#2a1e38"/>
    <rect x="8" y="4" width="3" height="1" fill="#2a1e38"/>
    <rect x="3" y="5" width="1" height="1" fill="#2a1e38"/>
    <rect x="10" y="5" width="1" height="1" fill="#2a1e38"/>
    <rect x="4" y="6" width="1" height="2" fill="#2a1e38"/>
    <rect x="9" y="6" width="1" height="2" fill="#2a1e38"/>
    <rect x="3" y="7" width="1" height="1" fill="#d8688a"/>
    <rect x="10" y="7" width="1" height="1" fill="#d8688a"/>
    <rect x="6" y="8" width="2" height="1" fill="#a83858"/>
    <rect x="0" y="11" width="1" height="3" fill="#a855f7"/>
    <rect x="13" y="11" width="1" height="3" fill="#a855f7"/>
    <rect x="3" y="11" width="8" height="1" fill="#3a2850"/>
    <rect x="3" y="12" width="8" height="2" fill="#a855f7"/>
    <rect x="4" y="12" width="6" height="1" fill="#c68cff"/>
  </g>

  <!-- Name text (tight to avatar bottom) -->
  <text x="600" y="340" text-anchor="middle" font-family="monospace" font-size="40" font-weight="bold" fill="#e8e0f0" letter-spacing="4">EDLYN VILLEGAS</text>

  <!-- Role text -->
  <text x="600" y="380" text-anchor="middle" font-family="monospace" font-size="20" fill="#c68cff" letter-spacing="2">Fullstack Developer</text>

  <!-- Purple accent line -->
  <rect x="490" y="400" width="220" height="3" rx="1" fill="#a855f7" opacity="0.6"/>

  <!-- URL -->
  <text x="600" y="440" text-anchor="middle" font-family="monospace" font-size="15" fill="#5a4d72" letter-spacing="2">edlynvillegas.com</text>
</svg>
